<svg width="339" height="328" viewBox="0 0 339 328" fill="none" xmlns="http://www.w3.org/2000/svg">
<path d="M281 182C276.25 239.928 236 285 236 285" stroke="white"/>
<path d="M195.635 290.6C186.835 293.4 177.835 294.8 168.635 294.8C158.235 294.8 148.535 293.2 139.535 290C130.535 286.8 122.335 282.4 114.935 276.8C107.535 271.2 101.035 264.7 95.4351 257.3C91.4351 252.1 87.9352 246.5 84.9352 240.5C87.5351 246.1 90.5351 251.6 93.9351 257C98.7351 264.6 104.735 271.3 111.935 277.1C118.935 282.9 127.035 287.5 136.235 290.9C145.435 294.5 155.835 296.3 167.435 296.3H171.335C187.935 296.3 202.335 292.6 214.535 285.2C226.735 277.8 236.835 268.4 244.835 257C252.835 245.4 258.835 232.5 262.835 218.3C266.635 204.1 268.535 190.1 268.535 176.3C268.535 170.5 268.235 164.4 267.635 158C267.035 151.4 265.735 144.8 263.735 138.2C261.735 131.6 258.935 125.2 255.335 119C251.535 112.6 246.435 106.8 240.035 101.6C234.835 97.4 229.235 93.9 223.235 91.1C217.035 88.1 210.935 86.4 204.935 86C205.535 86.4 205.835 86.8 205.835 87.2C205.835 88 205.435 88.9 204.635 89.9C203.635 90.7 203.135 91.6 203.135 92.6V93.2C203.135 94 203.635 94.6 204.635 95C205.435 95.4 206.835 96 208.835 96.8C210.835 97.4 213.435 98.4 216.635 99.8C219.835 101.2 223.635 103.3 228.035 106.1C226.835 107.3 226.235 108.2 226.235 108.8C222.435 106.8 218.935 105.4 215.735 104.6C212.535 103.8 209.535 103.4 206.735 103.4C200.935 103.4 196.735 104.4 194.135 106.4C191.535 108.4 190.235 109.9 190.235 110.9C190.235 112.5 191.535 113.8 194.135 114.8C196.535 115.8 199.435 117.1 202.835 118.7C206.035 120.1 209.435 122.1 213.035 124.7C216.635 127.1 219.435 130.7 221.435 135.5C224.635 140.3 227.135 146.3 228.935 153.5C230.535 160.7 231.335 168 231.335 175.4C231.335 188 229.835 199.5 226.835 209.9C223.835 220.3 219.635 229.3 214.235 236.9C208.635 244.5 201.935 250.4 194.135 254.6C186.135 258.8 177.135 260.9 167.135 260.9C157.535 260.9 148.935 258.5 141.335 253.7C133.535 248.9 126.935 242.4 121.535 234.2C116.135 225.8 112.035 216.2 109.235 205.4C106.435 194.4 105.035 182.7 105.035 170.3C105.035 164.3 105.435 158.4 106.235 152.6C106.835 146.6 108.235 140.9 110.435 135.5C112.435 130.1 115.335 125 119.135 120.2C122.735 115.4 127.535 111 133.535 107C141.135 103 147.335 100.2 152.135 98.6C156.935 96.8 159.335 95.1 159.335 93.5C159.335 92.9 158.935 92.2 158.135 91.4C148.135 93.6 139.135 97.2 131.135 102.2C123.735 106.8 117.535 112.8 112.535 120.2C117.935 112 124.035 105.7 130.835 101.3C138.235 96.3 147.035 92.4 157.235 89.6C156.235 88.6 155.735 87.7 155.735 86.9C155.735 86.1 157.235 85.4 160.235 84.8C163.035 84.2 166.135 83.5 169.535 82.7C172.935 81.9 176.135 80.9 179.135 79.7C181.935 78.5 183.335 77 183.335 75.2C183.335 73 181.535 71.4 177.935 70.4C174.335 69.4 169.935 68.2 164.735 66.8C163.335 66.8 162.035 67 160.835 67.4C159.435 67.8 158.235 68.2 157.235 68.6C147.435 70.4 138.135 73.6 129.335 78.2C120.335 82.8 112.335 88.7 105.335 95.9C98.1352 103.1 92.1351 111.7 87.3351 121.7C82.5351 131.5 79.4351 142.6 78.0352 155C79.0352 143.2 81.7352 132.5 86.1352 122.9C90.3351 113.1 95.9351 104.4 102.935 96.8C109.735 89.2 117.735 82.8 126.935 77.6C136.135 72.4 145.935 68.4 156.335 65.6C147.135 65.6 138.035 67.5 129.035 71.3C119.835 74.9 111.435 80.3 103.835 87.5C96.2351 94.5 89.6351 103.2 84.0351 113.6C78.4351 124 74.4351 135.9 72.0351 149.3C72.4351 149.3 73.0352 149.5 73.8352 149.9C74.6351 150.1 75.2351 150.2 75.6351 150.2C73.8351 160.4 72.9351 170.3 72.9351 179.9C72.9351 193.9 75.1351 207.6 79.5352 221C83.7351 234.4 89.9351 246.4 98.1351 257C106.135 267.4 116.035 275.8 127.835 282.2C139.635 288.8 153.135 292.1 168.335 292.1C177.335 292.1 186.135 290.8 194.735 288.2C203.335 285.6 211.335 282.1 218.735 277.7C218.335 278.1 218.135 278.5 218.135 278.9C218.135 279.3 218.635 279.5 219.635 279.5C212.235 284.3 204.235 288 195.635 290.6ZM77.4351 183.2C78.4351 191 79.9351 199.1 81.9351 207.5C83.7351 215.7 86.3351 223.8 89.7351 231.8C92.9352 239.8 97.0352 247.3 102.035 254.3C107.035 261.1 112.935 267 119.735 272C112.935 267.2 106.935 261.5 101.735 254.9C96.5351 248.1 92.2351 240.7 88.8351 232.7C85.2351 224.7 82.5352 216.3 80.7352 207.5C78.7351 198.5 77.5351 189.6 77.1351 180.8C77.3351 181.4 77.4351 182.2 77.4351 183.2ZM101.435 200.6C103.035 208.2 105.435 215.6 108.635 222.8C111.835 229.8 115.935 236.1 120.935 241.7C115.735 236.3 111.535 230.1 108.335 223.1C105.135 216.1 102.835 208.6 101.435 200.6ZM70.5351 174.2C70.5351 177.6 70.7351 181.1 71.1352 184.7C71.3351 188.1 71.6351 191.6 72.0351 195.2C72.0351 191.8 71.8351 188 71.4351 183.8C71.0351 179.4 70.8351 174.6 70.8351 169.4V164C70.6351 165.6 70.5351 167.3 70.5351 169.1V174.2ZM101.435 200.6C100.435 196.2 99.7351 191.8 99.3351 187.4C98.7351 182.8 98.4351 178.2 98.4351 173.6C98.4351 168.6 98.7351 163.5 99.3351 158.3C99.1351 160.5 99.0352 162.6 99.0352 164.6C98.8352 166.6 98.7352 168.7 98.7352 170.9C98.7352 181.1 99.6352 191 101.435 200.6ZM72.0351 197L74.7351 211.7C75.7351 215.3 76.7351 218.9 77.7351 222.5C78.7351 225.9 79.9352 229.3 81.3351 232.7C79.1352 226.5 77.3351 220.3 75.9351 214.1C74.3351 207.9 73.0351 201.8 72.0351 195.8V197ZM219.335 280.1C219.335 279.9 219.435 279.7 219.635 279.5C219.635 279.7 219.535 279.9 219.335 280.1ZM81.3351 232.7C81.7351 233.5 82.0351 234.2 82.2352 234.8C82.0351 234.2 81.7351 233.5 81.3351 232.7ZM84.6351 239.9C84.2351 239.3 83.9351 238.7 83.7352 238.1C83.9351 238.7 84.2351 239.3 84.6351 239.9ZM110.735 122.6C110.935 122.2 111.235 121.8 111.635 121.4C111.435 121.8 111.135 122.2 110.735 122.6ZM82.2352 234.8C82.6351 235.8 83.0351 236.8 83.4352 237.8C83.0351 236.8 82.6351 235.8 82.2352 234.8Z" fill="white"/>
<path d="M153.106 305.364L154.602 305.258L154.39 302.266L152.894 302.372L153.106 305.364ZM56.5112 199.183C61.9791 243.757 79.0991 270.833 98.4486 286.51C117.762 302.158 139.179 306.35 153.106 305.364L152.894 302.372C139.678 303.307 119.024 299.319 100.337 284.179C81.6866 269.069 64.8781 242.75 59.4888 198.817L56.5112 199.183Z" fill="white"/>
<path d="M86.2772 89C79.8324 62.5781 187.281 32.6402 252 89" stroke="white" stroke-width="7"/>
</svg>
